<?xml version="1.0" standalone="no"?>
<!DOCTYPE svg PUBLIC "-//W3C//DTD SVG 20010904//EN"
 "http://www.w3.org/TR/2001/REC-SVG-20010904/DTD/svg10.dtd">
<svg version="1.0" xmlns="http://www.w3.org/2000/svg"
 width="330.000000pt" height="150.000000pt" viewBox="0 0 330.000000 150.000000"
 preserveAspectRatio="xMidYMid meet">

<g transform="translate(0.000000,150.000000) scale(0.100000,-0.100000)"
fill="#000000" stroke="none">
<path d="M1810 1126 c0 -8 7 -16 15 -20 12 -4 15 -28 15 -126 0 -100 -2 -120
-15 -120 -8 0 -15 -7 -15 -15 0 -9 9 -15 25 -15 16 0 25 6 25 15 0 8 4 15 9
15 5 0 14 -7 21 -15 20 -24 74 -19 102 10 33 33 42 77 24 120 -24 57 -82 72
-130 34 l-26 -20 0 75 c0 74 -1 76 -25 76 -15 0 -25 -6 -25 -14z m174 -148
c22 -31 20 -60 -5 -92 -40 -50 -109 -23 -109 44 0 42 26 70 65 70 24 0 39 -7
49 -22z"/>
<path d="M2187 1134 c-12 -12 -8 -24 8 -24 13 0 15 -21 15 -125 0 -104 -2
-125 -15 -125 -8 0 -15 -7 -15 -15 0 -11 11 -15 40 -15 29 0 40 4 40 15 0 8
-4 15 -10 15 -5 0 -10 18 -10 40 0 56 20 51 64 -15 24 -36 43 -55 56 -55 11 0
20 7 20 15 0 8 -6 15 -14 15 -8 0 -29 23 -47 51 -32 50 -32 52 -13 66 10 7 29
16 42 20 25 6 31 33 7 33 -8 0 -36 -13 -63 -30 l-47 -29 -5 82 c-4 73 -7 82
-25 85 -12 2 -24 0 -28 -4z"/>
<path d="M2816 1116 c-32 -31 -33 -55 -5 -90 l22 -27 -32 -33 c-40 -41 -42
-86 -5 -115 29 -23 83 -28 116 -10 18 9 24 8 34 -6 12 -17 14 -17 20 -1 3 9 1
22 -4 29 -7 8 -7 18 -2 27 6 8 10 25 10 38 0 12 5 22 10 22 6 0 10 7 10 15 0
9 -9 15 -25 15 -22 0 -25 -4 -25 -37 l-1 -38 -29 35 c-35 41 -36 44 -10 77 37
47 21 106 -32 118 -21 5 -33 1 -52 -19z m68 -22 c20 -20 20 -27 -3 -55 -16
-20 -21 -21 -34 -10 -23 18 -31 50 -17 66 16 19 35 19 54 -1z m7 -181 c25 -40
16 -53 -36 -53 -56 0 -73 45 -33 87 25 26 35 21 69 -34z"/>
<path d="M786 1101 c-14 -5 -16 -10 -8 -15 19 -11 4 -26 -26 -26 -61 0 -186
-76 -223 -136 -35 -57 -20 -73 103 -119 69 -26 73 -33 43 -96 -30 -66 -33
-124 -7 -138 23 -12 42 3 42 33 0 12 14 50 30 84 17 35 30 74 30 86 0 24 -46
73 -100 105 l-34 20 35 15 c78 33 83 32 96 -17 10 -37 18 -47 45 -56 48 -17
146 -4 153 20 10 31 -3 39 -69 39 -58 0 -64 2 -70 23 -12 45 -8 57 17 48 24
-9 67 3 79 22 17 26 8 76 -14 91 -29 18 -97 28 -122 17z"/>
<path d="M1455 1097 c-3 -7 -4 -158 -3 -337 3 -300 4 -325 21 -328 16 -3 17
18 17 337 0 300 -2 341 -15 341 -9 0 -18 -6 -20 -13z"/>
<path d="M2084 1089 c-10 -17 13 -36 27 -22 12 12 4 33 -11 33 -5 0 -12 -5
-16 -11z"/>
<path d="M2060 1015 c0 -8 7 -15 15 -15 12 0 15 -14 15 -70 0 -56 -3 -70 -15
-70 -8 0 -15 -7 -15 -15 0 -11 11 -15 40 -15 29 0 40 4 40 15 0 8 -4 15 -10
15 -6 0 -10 35 -10 85 l0 85 -30 0 c-20 0 -30 -5 -30 -15z"/>
<path d="M2459 1002 c-68 -61 -23 -172 69 -172 21 0 48 9 62 20 23 17 23 19 7
26 -10 4 -23 2 -30 -5 -17 -17 -72 -13 -90 7 -32 35 -21 42 64 42 l82 0 -7 33
c-14 75 -99 101 -157 49z m114 -24 l22 -23 -64 -3 c-35 -2 -66 -1 -69 2 -3 3
3 15 13 26 24 27 69 26 98 -2z"/>
<path d="M375 803 c-109 -57 -162 -195 -112 -291 36 -67 135 -93 213 -56 104
49 162 193 116 284 -36 73 -141 103 -217 63z m150 -57 c84 -84 -5 -256 -132
-256 -129 0 -135 184 -9 261 45 28 111 25 141 -5z"/>
<path d="M915 803 c-107 -56 -159 -180 -117 -276 26 -59 70 -87 135 -87 63 0
108 22 156 76 113 128 59 305 -93 304 -28 -1 -64 -8 -81 -17z m150 -57 c44
-44 45 -113 2 -177 -88 -131 -260 -90 -233 55 22 114 164 189 231 122z"/>
<path d="M2720 765 c0 -8 5 -15 10 -15 6 0 10 -25 10 -57 0 -53 -1 -55 -17
-41 -29 26 -60 30 -91 14 -61 -32 -67 -123 -11 -170 35 -30 49 -32 89 -11 17
9 30 11 30 5 0 -5 14 -10 30 -10 32 0 40 14 15 24 -12 4 -15 30 -15 141 l0
135 -25 0 c-16 0 -25 -6 -25 -15z m-11 -132 c32 -27 37 -73 11 -106 -27 -35
-62 -35 -89 -1 -27 34 -27 74 -1 102 25 27 51 28 79 5z"/>
<path d="M2220 725 c0 -8 9 -15 20 -15 11 0 20 7 20 15 0 8 -9 15 -20 15 -11
0 -20 -7 -20 -15z"/>
<path d="M1898 666 c-16 -8 -28 -11 -28 -5 0 5 -13 9 -30 9 -16 0 -30 -4 -30
-10 0 -5 7 -10 15 -10 12 0 15 -15 15 -75 0 -43 -4 -75 -10 -75 -5 0 -10 -4
-10 -10 0 -5 16 -10 35 -10 19 0 35 5 35 10 0 6 -4 10 -10 10 -6 0 -10 26 -10
59 0 51 3 62 22 75 27 19 59 21 76 4 18 -18 16 -127 -3 -134 -28 -11 -15 -24
25 -24 22 0 40 5 40 10 0 6 -4 10 -10 10 -6 0 -10 28 -10 65 0 53 3 66 19 75
30 16 59 12 71 -9 16 -31 13 -121 -5 -127 -28 -11 -15 -24 25 -24 40 0 53 13
25 24 -11 4 -15 22 -15 75 0 61 -3 72 -22 85 -12 9 -32 16 -43 16 -11 0 -31
-7 -43 -16 -20 -14 -24 -14 -44 0 -28 20 -45 20 -80 2z"/>
<path d="M2412 664 c-12 -8 -22 -10 -22 -5 0 6 -13 11 -30 11 -16 0 -30 -4
-30 -10 0 -5 7 -10 15 -10 12 0 15 -14 15 -70 0 -54 -4 -72 -15 -76 -28 -11
-15 -24 25 -24 22 0 40 5 40 10 0 6 -4 10 -10 10 -6 0 -10 26 -10 59 0 51 3
62 22 75 34 24 67 20 78 -10 16 -40 13 -114 -5 -120 -28 -11 -15 -24 25 -24
40 0 53 13 25 24 -11 4 -15 22 -15 75 0 61 -3 72 -22 85 -12 9 -32 16 -43 16
-11 0 -31 -7 -43 -16z"/>
<path d="M2200 660 c0 -5 7 -10 15 -10 12 0 15 -15 15 -75 0 -43 -4 -75 -10
-75 -5 0 -10 -4 -10 -10 0 -5 16 -10 35 -10 19 0 35 5 35 10 0 6 -4 10 -10 10
-6 0 -10 35 -10 85 l0 85 -30 0 c-16 0 -30 -4 -30 -10z"/>
</g>
</svg>
